<svg xmlns="http://www.w3.org/2000/svg" data-name="Layer 1" viewBox="0 0 32 40" x="0px" y="0px"><title>noun project 1</title><path d="M16.25,27.08h0c-1.24,0-5.44-.15-7.3-2a2.71,2.71,0,0,1-.84-1.93,8.1,8.1,0,0,1,4-6.94,5.93,5.93,0,1,1,8.35,0,8.09,8.09,0,0,1,3.92,7c0,2.89-4.35,3.91-8.08,3.91M16.25,8a4,4,0,0,0-1.84,7.52,1,1,0,0,1-.14,1.79,6.15,6.15,0,0,0-4.21,5.83.76.76,0,0,0,.28.56c.86.86,3.24,1.44,5.92,1.44,3.61,0,6.13-1,6.13-2a6.15,6.15,0,0,0-4.19-5.85,1,1,0,0,1-.13-1.79A4,4,0,0,0,16.25,8"/><text x="0" y="47" fill="#000000" font-size="5px" font-weight="bold" font-family="'Helvetica Neue', Helvetica, Arial-Unicode, Arial, Sans-serif">Created by Silvia Herrera</text><text x="0" y="52" fill="#000000" font-size="5px" font-weight="bold" font-family="'Helvetica Neue', Helvetica, Arial-Unicode, Arial, Sans-serif">from the Noun Project</text></svg>