<svg xmlns="http://www.w3.org/2000/svg"  xml:space="preserve" version="1.1" shape-rendering="geometricPrecision" text-rendering="geometricPrecision" image-rendering="optimizeQuality" fill-rule="evenodd" clip-rule="evenodd" viewBox="0 0 5000000 6250000" x="0px" y="0px"><g><path fill="#000000" fill-rule="nonzero" d="M587735 2287867l1700132 -1700132c58585,-58584 135359,-87877 212015,-87877 76774,0 153548,29293 212133,87877l1700132 1700132c58466,58585 87877,135359 87877,212015 0,76774 -29411,153548 -87877,212133l-1700132 1700132c-58585,58584 -135359,87877 -212133,87877 -76538,0 -153430,-29293 -212015,-87877l-1700132 -1700132c-58584,-58585 -87877,-135477 -87877,-212133 0,-76656 29293,-153430 87877,-212015zm1898091 -1502173l-1700250 1700132c-3780,3780 -5670,8977 -5670,14056 0,5197 1890,10394 5670,14174l1700250 1700132c3780,3779 8977,5787 14056,5787 5197,0 10394,-2008 14174,-5787l1700132 -1700132c3779,-3780 5787,-8977 5787,-14174 0,-5079 -2008,-10276 -5787,-14056l-1700132 -1700132c-3780,-3898 -8977,-5788 -14174,-5788 -5079,0 -10276,1890 -14056,5788z"/></g><text x="0" y="5000015" fill="#000000" font-size="5px" font-weight="bold" font-family="'Helvetica Neue', Helvetica, Arial-Unicode, Arial, Sans-serif">Created by abeldb</text><text x="0" y="5000020" fill="#000000" font-size="5px" font-weight="bold" font-family="'Helvetica Neue', Helvetica, Arial-Unicode, Arial, Sans-serif">from the Noun Project</text></svg>