<svg xmlns="http://www.w3.org/2000/svg"  version="1.1" x="0px" y="0px" viewBox="0 0 100 125" style="enable-background:new 0 0 100 100;" xml:space="preserve"><path d="M59,31H41c-0.6,0-1-0.4-1-1s0.4-1,1-1h18c0.6,0,1,0.4,1,1S59.6,31,59,31z M60,37c0-0.6-0.4-1-1-1H41c-0.6,0-1,0.4-1,1  s0.4,1,1,1h18C59.6,38,60,37.6,60,37z M60,44c0-0.6-0.4-1-1-1H41c-0.6,0-1,0.4-1,1s0.4,1,1,1h18C59.6,45,60,44.6,60,44z M60,51  c0-0.6-0.4-1-1-1H41c-0.6,0-1,0.4-1,1c0,0.6,0.4,1,1,1h18C59.6,52,60,51.6,60,51z M60,58c0-0.6-0.4-1-1-1H41c-0.6,0-1,0.4-1,1  s0.4,1,1,1h18C59.6,59,60,58.6,60,58z M60,65c0-0.6-0.4-1-1-1H41c-0.6,0-1,0.4-1,1s0.4,1,1,1h18C59.6,66,60,65.6,60,65z M60,72  c0-0.6-0.4-1-1-1H41c-0.6,0-1,0.4-1,1s0.4,1,1,1h18C59.6,73,60,72.6,60,72z M60,79c0-0.6-0.4-1-1-1H41c-0.6,0-1,0.4-1,1s0.4,1,1,1  h18C59.6,80,60,79.6,60,79z M87,90h-6V50c0-0.6-0.4-1-1-1h-3v-5c0-0.6-0.4-1-1-1h-8V21c0-0.6-0.4-1-1-1h-6v-5c0-0.6-0.4-1-1-1h-9V6  c0-0.6-0.4-1-1-1s-1,0.4-1,1v8h-9c-0.6,0-1,0.4-1,1v5h-6c-0.6,0-1,0.4-1,1v22h-8c-0.6,0-1,0.4-1,1v5h-3c-0.6,0-1,0.4-1,1v40h-6  c-1.3,0-1.3,2,0,2c16.6,0,66.6,0,74,0C88.3,92,88.3,90,87,90z M68,45h7v5h-7V45z M41,16h18v5H41V16z M25,45h7v5h-7V45z M21,90V51  c4.5,0,5,0,11,0v39H21z M34,90c0-14.5,0-53.6,0-68c10.6,0,21.3,0,32,0c0,34.6,0,33.6,0,68H34z M68,90V51c6,0,6.5,0,11,0v39H68z"/><text x="0" y="115" fill="#000000" font-size="5px" font-weight="bold" font-family="'Helvetica Neue', Helvetica, Arial-Unicode, Arial, Sans-serif">Created by Adreine</text><text x="0" y="120" fill="#000000" font-size="5px" font-weight="bold" font-family="'Helvetica Neue', Helvetica, Arial-Unicode, Arial, Sans-serif">from the Noun Project</text></svg>